<?xml version="1.0" standalone="no"?>
<!DOCTYPE svg PUBLIC "-//W3C//DTD SVG 20010904//EN"
 "http://www.w3.org/TR/2001/REC-SVG-20010904/DTD/svg10.dtd">
<svg version="1.0" xmlns="http://www.w3.org/2000/svg"
 width="211.000000pt" height="104.000000pt" viewBox="0 0 211.000000 104.000000"
 preserveAspectRatio="xMidYMid meet">

<g transform="translate(0.000000,104.000000) scale(0.100000,-0.100000)"
fill="#000000" stroke="none">
<path d="M412 887 c-89 -34 -142 -111 -150 -218 -13 -184 90 -289 270 -277 38
3 72 8 75 12 4 3 9 32 11 64 l4 57 -77 0 c-73 0 -79 2 -98 27 -25 33 -34 122
-18 171 16 49 55 64 124 48 28 -6 54 -8 57 -4 15 16 28 113 16 120 -20 13
-180 13 -214 0z"/>
<path d="M792 648 l3 -253 73 -3 72 -3 0 76 0 75 38 0 c85 0 163 45 199 114
23 44 22 124 -3 166 -37 63 -70 75 -237 78 l-147 4 2 -254z m234 117 c11 -17
14 -35 10 -57 -9 -44 -24 -58 -62 -58 l-34 0 0 70 0 70 35 0 c26 0 39 -6 51
-25z"/>
<path d="M1350 645 l0 -257 138 4 c153 5 205 20 247 70 35 41 35 105 -1 147
-14 17 -32 31 -40 31 -20 0 -18 8 16 47 24 27 30 43 30 81 0 101 -44 125 -242
130 l-148 4 0 -257z m231 133 c13 -19 11 -62 -3 -76 -7 -7 -29 -12 -50 -12
l-38 0 0 56 0 57 41 -6 c23 -3 46 -11 50 -19z m13 -204 c39 -39 7 -84 -60 -84
l-44 0 0 50 0 50 44 0 c27 0 51 -6 60 -16z"/>
<path d="M1006 283 c-4 -9 0 -23 9 -32 13 -14 17 -14 30 0 19 19 10 49 -15 49
-10 0 -21 -8 -24 -17z"/>
<path d="M275 260 c8 -14 672 -14 680 0 4 7 -112 10 -340 10 -228 0 -344 -3
-340 -10z"/>
<path d="M1110 260 c0 -14 677 -14 685 0 4 7 -112 10 -339 10 -224 0 -346 -4
-346 -10z"/>
<path d="M929 195 c-37 -25 -53 -50 -43 -66 11 -18 32 -8 68 31 56 62 42 82
-25 35z"/>
<path d="M1070 212 c0 -15 71 -92 85 -92 40 0 23 47 -29 79 -35 22 -56 27 -56
13z"/>
<path d="M1013 183 c-3 -16 -7 -46 -7 -68 -1 -31 3 -40 18 -43 26 -6 37 17 30
63 -11 81 -27 99 -41 48z"/>
</g>
</svg>
